<svg width="1024" height="1024" viewBox="0 0 1024 1024" xmlns="http://www.w3.org/2000/svg">
  <defs>
    <linearGradient id="tile" x1="0" y1="0" x2="1" y2="1">
      <stop offset="0" stop-color="#2A37AE"/>
      <stop offset="0.52" stop-color="#5A2CB4"/>
      <stop offset="1" stop-color="#560A5E"/>
    </linearGradient>
    <linearGradient id="page" x1="0" y1="0" x2="0" y2="1">
      <stop offset="0" stop-color="#FFFFFF"/>
      <stop offset="1" stop-color="#ECE7FB"/>
    </linearGradient>
    <radialGradient id="sheen" cx="0.32" cy="0.10" r="0.95">
      <stop offset="0" stop-color="#FFFFFF" stop-opacity="0.30"/>
      <stop offset="0.55" stop-color="#FFFFFF" stop-opacity="0"/>
    </radialGradient>
    <filter id="pageShadow" x="-40%" y="-40%" width="180%" height="180%">
      <feDropShadow dx="0" dy="14" stdDeviation="22" flood-color="#160525" flood-opacity="0.34"/>
    </filter>
  </defs>

  <rect x="100" y="100" width="824" height="824" rx="188" fill="url(#tile)"/>
  <rect x="100" y="100" width="824" height="824" rx="188" fill="url(#sheen)"/>
  <rect x="101" y="101" width="822" height="822" rx="187" fill="none" stroke="#FFFFFF" stroke-opacity="0.20" stroke-width="2"/>

  <g filter="url(#pageShadow)">
    <path d="M 332 250 L 602 250 L 722 370 L 722 742 Q 722 770 694 770 L 330 770 Q 302 770 302 742 L 302 278 Q 302 250 332 250 Z" fill="url(#page)"/>
    <path d="M 602 250 L 722 370 L 614 370 Q 602 370 602 358 Z" fill="#D3CAF0"/>
  </g>

  <text x="512" y="648" text-anchor="middle" font-family="'Helvetica Neue',Arial,sans-serif" font-size="140" font-weight="800" letter-spacing="3" fill="#4A26AC">PDF</text>
</svg>
